<svg id="Layer_1" data-name="Layer 1" xmlns="http://www.w3.org/2000/svg" viewBox="0 0 107 32.81"><defs><style>.cls-1{fill:#fff;}.cls-2{fill:#99999a;}</style></defs><title>splunk-logo</title><path class="cls-1" d="M11.54,19.81a4.36,4.36,0,0,1-.45,2,4.43,4.43,0,0,1-1.26,1.53,6.09,6.09,0,0,1-1.92,1,8,8,0,0,1-2.44.35,8.69,8.69,0,0,1-2.84-.43A8.6,8.6,0,0,1,.12,22.79L1.5,20.53a9,9,0,0,0,1.81,1.22A3.75,3.75,0,0,0,5,22.15a2.48,2.48,0,0,0,1.66-.53,1.79,1.79,0,0,0,.63-1.44,2.29,2.29,0,0,0-.11-.73,2.09,2.09,0,0,0-.42-.69A6.08,6.08,0,0,0,5.88,18q-.53-.42-1.37-1Q3.86,16.5,3.25,16a9.27,9.27,0,0,1-1.11-1,4.68,4.68,0,0,1-.81-1.23A3.74,3.74,0,0,1,1,12.2a4,4,0,0,1,.42-1.82A4.23,4.23,0,0,1,2.59,9a5.3,5.3,0,0,1,1.74-.9,7.21,7.21,0,0,1,2.2-.32A8.82,8.82,0,0,1,9,8.09a8.2,8.2,0,0,1,2.18,1l-1.26,2a4.65,4.65,0,0,0-2.71-.9,2.22,2.22,0,0,0-1.43.45,1.39,1.39,0,0,0-.56,1.13,1.63,1.63,0,0,0,.5,1.16,16.43,16.43,0,0,0,1.72,1.45q1.23.91,2,1.58a8.91,8.91,0,0,1,1.28,1.28,3.59,3.59,0,0,1,.65,1.21,4.88,4.88,0,0,1,.18,1.36"/><path class="cls-1" d="M25.8,16a7.19,7.19,0,0,0-1.07-4.18,3.38,3.38,0,0,0-2.92-1.53,3.57,3.57,0,0,0-3.08,1.63,7.59,7.59,0,0,0-1.14,4.41A7.16,7.16,0,0,0,18.7,20.6a3.58,3.58,0,0,0,3.07,1.55,3,3,0,0,0,1.93-.6A4.5,4.5,0,0,0,24.94,20a7.16,7.16,0,0,0,.67-2,11.48,11.48,0,0,0,.2-2m4.51-.16a10.13,10.13,0,0,1-.58,3.5,8.81,8.81,0,0,1-1.62,2.79,7.22,7.22,0,0,1-5.53,2.52,7.14,7.14,0,0,1-1.39-.13,4.58,4.58,0,0,1-1.23-.44,6.22,6.22,0,0,1-1.15-.79,11.36,11.36,0,0,1-1.18-1.2V32.33H13.47V8.14h4.15l0,2.35A7.44,7.44,0,0,1,20.1,8.41a6.79,6.79,0,0,1,3.07-.66,6.89,6.89,0,0,1,2.89.6A6.78,6.78,0,0,1,28.32,10a7.47,7.47,0,0,1,1.47,2.55,10,10,0,0,1,.52,3.29"/><rect class="cls-1" x="32.15" y="0.59" width="4.25" height="23.67"/><path class="cls-1" d="M50.32,24.26V22.1a8,8,0,0,1-2.52,2,7.09,7.09,0,0,1-3,.6,6.32,6.32,0,0,1-3.21-.76,4.33,4.33,0,0,1-1.89-2.25,3.46,3.46,0,0,1-.24-.74q-.08-.39-.15-.89a11.31,11.31,0,0,1-.08-1.15q0-.65,0-1.58V8.11h4.25v9.24a11.65,11.65,0,0,0,.11,1.87A3.6,3.6,0,0,0,44,20.39a2.73,2.73,0,0,0,2.63,1.36,3.31,3.31,0,0,0,3.31-2,4.59,4.59,0,0,0,.32-1.15,12.45,12.45,0,0,0,.1-1.79V8.11h4.25V24.26Z"/><path class="cls-1" d="M68.67,24.26V15a11.47,11.47,0,0,0-.11-1.87,3.62,3.62,0,0,0-.4-1.16,2.74,2.74,0,0,0-2.63-1.35,4,4,0,0,0-2.06.5,3,3,0,0,0-1.28,1.47,4.55,4.55,0,0,0-.31,1.18,14.69,14.69,0,0,0-.08,1.76v8.7H57.51V8.14H61.8V10.3a8,8,0,0,1,2.52-2,7.08,7.08,0,0,1,3-.6,6.12,6.12,0,0,1,3.22.79,4.5,4.5,0,0,1,1.89,2.24c.09.24.16.48.23.73a7,7,0,0,1,.16.85,10.56,10.56,0,0,1,.08,1.14q0,.66,0,1.6v9.16Z"/><polygon class="cls-1" points="86.57 24.58 80.15 15.68 80.15 24.26 75.86 24.26 75.86 0.59 80.15 0.59 80.15 14.49 80.6 14.49 86.31 7.88 89.53 9.26 84.05 15.13 90.54 23.2 86.57 24.58"/><polygon class="cls-2" points="94.22 23.82 94.22 20.98 104.22 16.06 94.22 11.19 94.22 8.29 107.12 14.77 107.12 17.41 94.22 23.82"/><path class="cls-2" d="M95.47,4.12A1.45,1.45,0,1,1,94,5.56a1.43,1.43,0,0,1,1.44-1.45Zm0,.23a1.19,1.19,0,0,0-1.16,1.22,1.16,1.16,0,1,0,2.32,0,1.19,1.19,0,0,0-1.16-1.23ZM95.2,6.41h-.26V4.79a2.89,2.89,0,0,1,.46,0,.85.85,0,0,1,.5.12.39.39,0,0,1,.15.33.4.4,0,0,1-.32.39h0c.14,0,.24.15.27.39a1.36,1.36,0,0,0,.1.4h-.27A1.19,1.19,0,0,1,95.72,6a.3.3,0,0,0-.35-.28H95.2Zm0-.89h.19c.21,0,.39-.08.39-.28S95.67,5,95.38,5H95.2Z"/></svg>